# xmcd CD database file
#
# Track frame offsets:
#	183
#	12833
#	28658
#	41995
#	55768
#	68423
#	78733
#	96120
#	110195
#	122808
#	133095
#	148533
#	161233
#	177483
#
# Disc length: 2564 seconds
#
# Revision: 3
# Processed by: cddbd v1.5.2PL0 Copyright (c) Steve Scherf et al.
# Submitted via: CDex 1.51
#
DISCID=ca0a020e
DTITLE=Jonny Hill - Heut geht es an Bord
DYEAR=1900
DGENRE=
TTITLE0=Heute geht es an Bord
TTITLE1=Nimm uns mit, Kapitän, auf die Reise
TTITLE2=Muß i denn zum Städtele hinaus
TTITLE3=Unser Käpt`n der kann jodeln
TTITLE4=Die Möven von Helgoland
TTITLE5=Santa Lucia
TTITLE6=Eine Heimat und doch kein Zuhaus
TTITLE7=Schön ist die Liebe im Hafen
TTITLE8=Friesenlied (Wo die Nordseewellen trekken...)
TTITLE9=Das ist die Liebe der Matrosen
TTITLE10=Auf St. Pauli spielt der Jonny Mundharmonika
TTITLE11=Ein Körn und ein Bier und ein Schifferklavier
TTITLE12=Die Sehsuch nach Dir und Samos
TTITLE13=Rolling Home
EXTD=
EXTT0=
EXTT1=
EXTT2=
EXTT3=
EXTT4=
EXTT5=
EXTT6=
EXTT7=
EXTT8=
EXTT9=
EXTT10=
EXTT11=
EXTT12=
EXTT13=
PLAYORDER=
